<?xml version="1.0" encoding="UTF-8" standalone="no"?>
<!-- Created with Inkscape (http://www.inkscape.org/) -->

<svg
   xmlns:dc="http://purl.org/dc/elements/1.1/"
   xmlns:cc="http://creativecommons.org/ns#"
   xmlns:rdf="http://www.w3.org/1999/02/22-rdf-syntax-ns#"
   xmlns:svg="http://www.w3.org/2000/svg"
   xmlns="http://www.w3.org/2000/svg"
   xmlns:sodipodi="http://sodipodi.sourceforge.net/DTD/sodipodi-0.dtd"
   xmlns:inkscape="http://www.inkscape.org/namespaces/inkscape"
   width="660.57141"
   height="594.67902"
   viewBox="0 0 174.77618 157.34216"
   version="1.1"
   id="svg14414"
   inkscape:version="0.92.4 (5da689c313, 2019-01-14)"
   sodipodi:docname="love.svg">
  <defs
     id="defs14408" />
  <sodipodi:namedview
     id="base"
     pagecolor="#ffffff"
     bordercolor="#666666"
     borderopacity="1.0"
     inkscape:pageopacity="0.0"
     inkscape:pageshadow="2"
     inkscape:zoom="0.35"
     inkscape:cx="-112.57142"
     inkscape:cy="50.107638"
     inkscape:document-units="mm"
     inkscape:current-layer="layer1"
     showgrid="false"
     inkscape:window-width="1920"
     inkscape:window-height="1001"
     inkscape:window-x="-9"
     inkscape:window-y="-9"
     inkscape:window-maximized="1"
     units="px"
     fit-margin-top="0"
     fit-margin-left="0"
     fit-margin-right="0"
     fit-margin-bottom="0" />
  <metadata
     id="metadata14411">
    <rdf:RDF>
      <cc:Work
         rdf:about="">
        <dc:format>image/svg+xml</dc:format>
        <dc:type
           rdf:resource="http://purl.org/dc/dcmitype/StillImage" />
        <dc:title></dc:title>
      </cc:Work>
    </rdf:RDF>
  </metadata>
  <g
     inkscape:label="Layer 1"
     inkscape:groupmode="layer"
     id="layer1"
     transform="translate(-2.5702367,-4.7488095)">
    <g
       id="g10612"
       transform="matrix(5.461756,0,0,4.9169424,2.5702367,4.7488095)">
      <path
         style="fill:#000000;fill-opacity:0"
         d="M 0,0.5 V 0 H 0.5 1 1.5 2 2.5 3 3.5 4 V 0.5 Q 4,1 3.875,1.375 3.75,1.75 3.375,1.875 3,2 2.625,2.125 2.25,2.25 2.125,2.625 2,3 1.875,3.375 1.75,3.75 1.375,3.875 1,4 0.5,4 H 0 V 3.5 3 2.5 2 1.5 1 0.5"
         id="path10448"
         inkscape:connector-curvature="0" />
      <path
         style="fill:#240c17;fill-opacity:1"
         d="M 4,0.5 V 0 H 4.5 5 5.5 6 6.5 7 7.5 8 8.5 9 9.5 10 10.5 11 11.5 12 v 0.5 q 0,0.5 0.125,0.875 0.125,0.375 0.5,0.5 Q 13,2 13.375,2.125 13.75,2.25 13.875,2.625 14,3 14.125,3.375 14.25,3.75 14.625,3.875 15,4 15.5,4 16,4 16.5,4 17,4 17.375,3.875 17.75,3.75 17.875,3.375 18,3 18.125,2.625 18.25,2.25 18.625,2.125 19,2 19.375,1.875 19.75,1.75 19.875,1.375 20,1 20,0.5 V 0 h 0.5 0.5 0.5 0.5 0.5 0.5 0.5 0.5 0.5 0.5 0.5 0.5 0.5 0.5 0.5 0.5 v 0.5 q 0,0.5 0.125,0.875 0.125,0.375 0.5,0.5 Q 29,2 29.375,2.125 29.75,2.25 29.875,2.625 30,3 30.125,3.375 30.25,3.75 30.625,3.875 31,4 31.5,4 H 32 V 4.5 5 5.5 6 6.5 7 7.5 8 8.5 9 9.5 10 10.5 11 11.5 12 12.5 13 13.5 14 h -0.5 q -0.5,0 -0.875,0.125 -0.375,0.125 -0.5,0.5 Q 30,15 30,15.5 q 0,0.5 0,1 0,0.5 -0.125,0.875 -0.125,0.375 -0.5,0.5 Q 29,18 28.625,18.125 28.25,18.25 28.125,18.625 28,19 28,19.5 q 0,0.5 0,1 0,0.5 -0.125,0.875 -0.125,0.375 -0.5,0.5 Q 27,22 26.625,22.125 26.25,22.25 26.125,22.625 26,23 25.875,23.375 25.75,23.75 25.375,23.875 25,24 24.625,24.125 24.25,24.25 24.125,24.625 24,25 23.875,25.375 23.75,25.75 23.375,25.875 23,26 22.625,26.125 22.25,26.25 22.125,26.625 22,27 21.875,27.375 21.75,27.75 21.375,27.875 21,28 20.625,28.125 20.25,28.25 20.125,28.625 20,29 19.875,29.375 19.75,29.75 19.375,29.875 19,30 18.625,30.125 18.25,30.25 18.125,30.625 18,31 18,31.5 V 32 H 17.5 17 16.5 16 15.5 15 14.5 14 V 31.5 Q 14,31 13.875,30.625 13.75,30.25 13.375,30.125 13,30 12.625,29.875 12.25,29.75 12.125,29.375 12,29 11.875,28.625 11.75,28.25 11.375,28.125 11,28 10.625,27.875 10.25,27.75 10.125,27.375 10,27 9.875,26.625 9.75,26.25 9.375,26.125 9,26 8.625,25.875 8.25,25.75 8.125,25.375 8,25 7.875,24.625 7.75,24.25 7.375,24.125 7,24 6.625,23.875 6.25,23.75 6.125,23.375 6,23 5.875,22.625 5.75,22.25 5.375,22.125 5,22 4.625,21.875 4.25,21.75 4.125,21.375 4,21 4,20.5 4,20 4,19.5 4,19 3.875,18.625 3.75,18.25 3.375,18.125 3,18 2.625,17.875 2.25,17.75 2.125,17.375 2,17 2,16.5 2,16 2,15.5 2,15 1.875,14.625 1.75,14.25 1.375,14.125 1,14 0.5,14 H 0 V 13.5 13 12.5 12 11.5 11 10.5 10 9.5 9 8.5 8 7.5 7 6.5 6 5.5 5 4.5 4 H 0.5 Q 1,4 1.375,3.875 1.75,3.75 1.875,3.375 2,3 2.125,2.625 2.25,2.25 2.625,2.125 3,2 3.375,1.875 3.75,1.75 3.875,1.375 4,1 4,0.5 M 16.5,30 q 0.5,0 0.875,-0.125 0.375,-0.125 0.5,-0.5 Q 18,29 18,28.5 V 28 h 0.5 q 0.5,0 0.875,-0.125 0.375,-0.125 0.5,-0.5 Q 20,27 20,26.5 V 26 h 0.5 q 0.5,0 0.875,-0.125 0.375,-0.125 0.5,-0.5 Q 22,25 22.125,24.625 22.25,24.25 22.625,24.125 23,24 23.375,23.875 23.75,23.75 23.875,23.375 24,23 24.125,22.625 24.25,22.25 24.625,22.125 25,22 25.375,21.875 25.75,21.75 25.875,21.375 26,21 26,20.5 q 0,-0.5 0,-1 0,-0.5 0.125,-0.875 0.125,-0.375 0.5,-0.5 Q 27,18 27.375,17.875 27.75,17.75 27.875,17.375 28,17 28,16.5 q 0,-0.5 0,-1 0,-0.5 0,-1 V 14 h 0.5 q 0.5,0 0.875,-0.125 0.375,-0.125 0.5,-0.5 Q 30,13 30,12.5 q 0,-0.5 0,-1 0,-0.5 0,-1 0,-0.5 0,-1 0,-0.5 0,-1 0,-0.5 0,-1 0,-0.5 0,-1 V 6 5.5 Q 30,5 29.875,4.625 29.75,4.25 29.375,4.125 29,4 28.5,4 H 28 V 3.5 Q 28,3 27.875,2.625 27.75,2.25 27.375,2.125 27,2 26.5,2 26,2 25.5,2 25,2 24.5,2 24,2 23.5,2 23,2 22.5,2 22,2 21.5,2 21,2 20.625,2.125 20.25,2.25 20.125,2.625 20,3 19.875,3.375 19.75,3.75 19.375,3.875 19,4 18.625,4.125 18.25,4.25 18.125,4.625 18,5 17.875,5.375 17.75,5.75 17.375,5.875 17,6 16.5,6 16,6 15.5,6 15,6 14.625,5.875 14.25,5.75 14.125,5.375 14,5 13.875,4.625 13.75,4.25 13.375,4.125 13,4 12.5,4 H 12 V 3.5 Q 12,3 11.875,2.625 11.75,2.25 11.375,2.125 11,2 10.5,2 10,2 9.5,2 9,2 8.4375,2.0625 L 7.875,2.125 7.9375,2.1875 8,2.25 7.875,2.125 Q 7.75,2 7.5,2 H 7.25 7.625 8 7.5 Q 7,2 6.5,2 6,2 5.5,2 5,2 4.625,2.125 4.25,2.25 4.125,2.625 4,3 3.875,3.375 3.75,3.75 3.375,3.875 3,4 2.625,4.125 2.25,4.25 2.125,4.625 2,5 2,5.5 q 0,0.5 0,1 0,0.5 0,1 0,0.5 0,1 0,0.5 0,1 0,0.5 0,1 0,0.5 0,1 0,0.5 0,1 0,0.5 0.125,0.875 0.125,0.375 0.5,0.5 Q 3,14 3.375,14.125 3.75,14.25 3.875,14.625 4,15 4,15.5 q 0,0.5 0,1 0,0.5 0.125,0.875 0.125,0.375 0.5,0.5 Q 5,18 5.375,18.125 5.75,18.25 5.875,18.625 6,19 6,19.5 q 0,0.5 0,1 0,0.5 0.125,0.875 0.125,0.375 0.5,0.5 0.375,0.125 0.75,0.25 0.375,0.125 0.5,0.5 0.125,0.375 0.25,0.75 0.125,0.375 0.5,0.5 0.375,0.125 0.75,0.25 0.375,0.125 0.5,0.5 0.125,0.375 0.25,0.75 0.125,0.375 0.5,0.5 0.375,0.125 0.75,0.25 0.375,0.125 0.5,0.5 0.125,0.375 0.25,0.75 0.125,0.375 0.5,0.5 0.375,0.125 0.75,0.25 0.375,0.125 0.5,0.5 0.125,0.375 0.25,0.75 0.125,0.375 0.5,0.5 Q 15,30 15.5,30 q 0.5,0 1,0 m 3.875,-4 H 20 19.875 19.75 20 q 0.25,0 0.5,0 h 0.25 -0.375"
         id="path10450"
         inkscape:connector-curvature="0" />
      <path
         style="fill:#000000;fill-opacity:0"
         d="M 12,0.5 V 0 H 12.5 13 13.5 14 14.5 15 15.5 16 16.5 17 17.5 18 18.5 19 19.5 20 V 0.5 Q 20,1 19.875,1.375 19.75,1.75 19.375,1.875 19,2 18.625,2.125 18.25,2.25 18.125,2.625 18,3 17.875,3.375 17.75,3.75 17.375,3.875 17,4 16.5,4 16,4 15.5,4 15,4 14.625,3.875 14.25,3.75 14.125,3.375 14,3 13.875,2.625 13.75,2.25 13.375,2.125 13,2 12.625,1.875 12.25,1.75 12.125,1.375 12,1 12,0.5"
         id="path10452"
         inkscape:connector-curvature="0" />
      <path
         style="fill:#000000;fill-opacity:0"
         d="M 28,0.5 V 0 H 28.5 29 29.5 30 30.5 31 31.5 32 V 0.5 1 1.5 2 2.5 3 3.5 4 H 31.5 Q 31,4 30.625,3.875 30.25,3.75 30.125,3.375 30,3 29.875,2.625 29.75,2.25 29.375,2.125 29,2 28.625,1.875 28.25,1.75 28.125,1.375 28,1 28,0.5"
         id="path10454"
         inkscape:connector-curvature="0" />
      <path
         style="fill:#92143b;fill-opacity:1"
         d="M 4.125,2.625 Q 4.25,2.25 4.625,2.125 5,2 5.5,2 H 6 V 2.5 Q 6,3 6,3.5 V 4 H 5.5 Q 5,4 4.625,4.125 4.25,4.25 4.125,4.625 4,5 3.875,5.375 3.75,5.75 3.375,5.875 3,6 2.5,6 H 2 V 5.5 Q 2,5 2.125,4.625 2.25,4.25 2.625,4.125 3,4 3.375,3.875 3.75,3.75 3.875,3.375 4,3 4.125,2.625 M 2,5.625 V 6 6.125 6.25 6 Q 2,5.75 2,5.5 V 5.25 5.625 M 5.625,4 H 6 6.125 6.25 6 Q 5.75,4 5.5,4 H 5.25 5.625 m 0.5,-2 H 6 5.625 5.25 5.5 Q 5.75,2 6,2 H 6.25 6.125"
         id="path10456"
         inkscape:connector-curvature="0" />
      <path
         style="fill:#e381a8;fill-opacity:1"
         d="M 6,2.5 V 2 H 6.5 Q 7,2 7.5,2 8,2 8,2.5 8,3 8.125,3.375 L 8.25,3.75 8.15625,3.46875 8.0625,3.1875 8.125,3.375 Q 8.1875,3.5625 8.3125,3.6875 L 8.4375,3.8125 8.375,3.75 8.3125,3.6875 8,4 7.6875,4.3125 7.75,4.375 7.8125,4.4375 7.6875,4.3125 Q 7.5625,4.1875 7.375,4.125 L 7.1875,4.0625 7.46875,4.15625 7.75,4.25 7.375,4.125 Q 7,4 6.5,4 H 6 V 3.5 Q 6,3 6,2.5 M 5.875,4 H 6 6.375 6.75 6.5 Q 6.25,4 6,4 H 5.75 5.875 m 0.5,-2 H 6 5.875 5.75 6 Q 6.25,2 6.5,2 H 6.75 6.375"
         id="path10458"
         inkscape:connector-curvature="0" />
      <path
         style="fill:#4f253a;fill-opacity:1"
         d="M 8,2.5 V 2 2.375 2.75 2.5 Q 8,2.25 7.875,2.125 L 7.75,2 7.8125,2.0625 7.875,2.125 8.4375,2.0625 Q 9,2 9.5,2 H 10 v 0.5 q 0,0.5 0,1 V 4 H 9.5 Q 9,4 8.625,3.875 8.25,3.75 8.125,3.375 8,3 8,2.5 M 9.625,4 H 10 10.125 10.25 10 Q 9.75,4 9.5,4 H 9.25 9.625 m 0.5,-2 H 10 9.625 9.25 9.5 Q 9.75,2 10,2 h 0.25 -0.125"
         id="path10460"
         inkscape:connector-curvature="0" />
      <path
         style="fill:#401a1a;fill-opacity:1"
         d="M 10,2.5 V 2 h 0.5 q 0.5,0 0.875,0.125 0.375,0.125 0.5,0.5 Q 12,3 12,3.5 V 4 H 11.5 Q 11,4 10.5,4 H 10 V 3.5 Q 10,3 10,2.5 M 9.875,4 H 10 10.375 10.75 10.5 Q 10.25,4 10,4 H 9.75 9.875 m 0.5,-2 H 10 9.875 9.75 10 q 0.25,0 0.5,0 h 0.25 -0.375"
         id="path10462"
         inkscape:connector-curvature="0" />
      <path
         style="fill:#4f253a;fill-opacity:1"
         d="M 20.125,2.625 Q 20.25,2.25 20.625,2.125 21,2 21.5,2 H 22 v 0.5 q 0,0.5 0,1 V 4 H 21.5 Q 21,4 20.625,4.125 20.25,4.25 20.125,4.625 20,5 19.875,5.375 19.75,5.75 19.375,5.875 19,6 18.625,6.125 18.25,6.25 18.125,6.625 18,7 18,7.5 V 8 7.625 7.25 7.5 q 0,0.25 0.125,0.375 L 18.25,8 18.1875,7.9375 18.125,7.875 18.0625,8.4375 Q 18,9 18.125,9.375 q 0.125,0.375 0.5,0.5 0.375,0.125 0.75,0.25 0.375,0.125 0.5,0.5 0.125,0.375 0.25,0.75 0.125,0.375 0.5,0.5 0.375,0.125 0.75,0.25 0.375,0.125 0.5,0.5 0.125,0.375 0.25,0.75 0.125,0.375 0.5,0.5 0.375,0.125 0.75,0 0.375,-0.125 0.5,-0.5 Q 24,13 24,12.5 V 12 h 0.5 q 0.5,0 1,0 0.5,0 1,0 0.5,0 0.875,0.125 0.375,0.125 0.5,0.5 Q 28,13 28,13.5 V 14 h -0.5 q -0.5,0 -1,0 -0.5,0 -1,0 -0.5,0 -0.875,0.125 -0.375,0.125 -0.5,0.5 Q 24,15 24,15.5 V 16 h -0.5 q -0.5,0 -1,0 H 22 V 15.5 Q 22,15 21.875,14.625 21.75,14.25 21.375,14.125 21,14 20.625,13.875 20.25,13.75 20.125,13.375 20,13 19.875,12.625 19.75,12.25 19.375,12.125 19,12 18.625,11.875 18.25,11.75 18.125,11.375 18,11 17.875,10.625 17.75,10.25 17.375,10.125 17,10 16.625,10.125 16.25,10.25 16.125,10.625 16,11 16,11.5 V 12 h -0.5 q -0.5,0 -0.875,0.125 -0.375,0.125 -0.5,0.5 Q 14,13 13.875,13.375 13.75,13.75 13.375,13.875 13,14 12.5,14 12,14 11.5,14 11,14 10.625,13.875 10.25,13.75 10.125,13.375 10,13 10,12.5 V 12 h 0.5 q 0.5,0 1,0 0.5,0 1,0 0.5,0 0.875,-0.125 0.375,-0.125 0.5,-0.5 Q 14,11 14,10.5 V 10 h 0.5 Q 15,10 15.375,9.875 15.75,9.75 15.875,9.375 16,9 15.875,8.625 15.75,8.25 15.375,8.125 15,8 14.4375,7.9375 L 13.875,7.875 13.8125,7.9375 13.75,8 13.875,7.875 Q 14,7.75 14,7.5 V 7.25 7.625 8 7.5 Q 14,7 13.875,6.625 13.75,6.25 13.375,6.125 13,6 12.625,5.875 12.25,5.75 12.125,5.375 12,5 12,4.5 V 4 h 0.5 q 0.5,0 0.875,0.125 0.375,0.125 0.5,0.5 Q 14,5 14.125,5.375 14.25,5.75 14.625,5.875 15,6 15.5,6 16,6 16.5,6 17,6 17.375,5.875 17.75,5.75 17.875,5.375 18,5 18.125,4.625 18.25,4.25 18.625,4.125 19,4 19.375,3.875 19.75,3.75 19.875,3.375 20,3 20.125,2.625 M 14,9.875 V 10 10.375 10.75 10.5 Q 14,10.25 14,10 V 9.75 9.875 M 10.375,12 H 10 9.875 9.75 10 q 0.25,0 0.5,0 h 0.25 -0.375 m 5.25,0 H 16 16.125 16.25 16 q -0.25,0 -0.5,0 h -0.25 0.375 m 6,-8 H 22 22.125 22.25 22 q -0.25,0 -0.5,0 h -0.25 0.375 m 0.5,-2 H 22 21.625 21.25 21.5 q 0.25,0 0.5,0 h 0.25 -0.125"
         id="path10464"
         inkscape:connector-curvature="0" />
      <path
         style="fill:#401a1a;fill-opacity:1"
         d="M 22,2.5 V 2 h 0.5 q 0.5,0 1,0 0.5,0 1,0 0.5,0 1,0 H 26 v 0.5 q 0,0.5 0,1 V 4 H 25.5 Q 25,4 24.5,4 24,4 23.5,4 23,4 22.5,4 H 22 V 3.5 Q 22,3 22,2.5 M 21.875,4 H 22 22.375 22.75 22.5 Q 22.25,4 22,4 h -0.25 0.125 m 4.25,-2 H 26 25.625 25.25 25.5 q 0.25,0 0.5,0 h 0.25 -0.125 m -3.75,0 H 22 21.875 21.75 22 q 0.25,0 0.5,0 h 0.25 -0.375"
         id="path10466"
         inkscape:connector-curvature="0" />
      <path
         style="fill:#790735;fill-opacity:1"
         d="M 26,2.5 V 2 h 0.5 q 0.5,0 0.875,0.125 0.375,0.125 0.5,0.5 Q 28,3 28,3.5 V 4 H 27.5 Q 27,4 26.5,4 H 26 V 3.5 Q 26,3 26,2.5 M 26.375,2 H 26 25.875 25.75 26 q 0.25,0 0.5,0 h 0.25 -0.375"
         id="path10468"
         inkscape:connector-curvature="0" />
      <path
         style="fill:#4f253a;fill-opacity:1"
         d="M 4.125,4.625 Q 4.25,4.25 4.625,4.125 5,4 5.5,4 6,4 6.5,4 7,4 7.375,4.125 7.75,4.25 7.875,4.625 8,5 8,5.5 V 6 H 7.5 Q 7,6 6.5,6 6,6 5.5,6 5,6 4.625,6.125 4.25,6.25 4.125,6.625 4,7 4,7.5 V 8 H 3.5 Q 3,8 2.5,8 H 2 V 7.5 Q 2,7 2,6.5 V 6 H 2.5 Q 3,6 3.375,5.875 3.75,5.75 3.875,5.375 4,5 4.125,4.625 M 2,5.875 V 6 6.375 6.75 6.5 Q 2,6.25 2,6 V 5.75 5.875 m 0,1.75 V 8 8.125 8.25 8 Q 2,7.75 2,7.5 V 7.25 7.625"
         id="path10470"
         inkscape:connector-curvature="0" />
      <path
         style="fill:#d27ca0;fill-opacity:1"
         d="M 7.875,4.625 7.75,4.25 7.84375,4.53125 7.9375,4.8125 7.875,4.625 Q 7.8125,4.4375 7.6875,4.3125 L 7.5625,4.1875 7.625,4.25 7.6875,4.3125 8,4 8.3125,3.6875 8.25,3.625 8.1875,3.5625 8.3125,3.6875 Q 8.4375,3.8125 8.625,3.875 L 8.8125,3.9375 8.53125,3.84375 8.25,3.75 8.625,3.875 Q 9,4 9.5,4 H 10 v 0.5 q 0,0.5 0,1 V 6 H 9.5 Q 9,6 8.5,6 H 8 V 5.5 Q 8,5 7.875,4.625 M 10.125,4 H 10 9.625 9.25 9.5 Q 9.75,4 10,4 h 0.25 -0.125"
         id="path10472"
         inkscape:connector-curvature="0" />
      <path
         style="fill:#f8aebe;fill-opacity:1"
         d="M 10,4.5 V 4 h 0.5 q 0.5,0 1,0 H 12 v 0.5 q 0,0.5 0.125,0.875 0.125,0.375 0.5,0.5 Q 13,6 13.375,6.125 13.75,6.25 13.875,6.625 14,7 14,7.5 14,8 13.5,8 13,8 12.5,8 12,8 12,7.5 12,7 11.875,6.625 11.75,6.25 11.375,6.125 11,6 10.5,6 H 10 V 5.5 Q 10,5 10,4.5 M 10.375,4 H 10 9.875 9.75 10 q 0.25,0 0.5,0 h 0.25 -0.375"
         id="path10474"
         inkscape:connector-curvature="0" />
      <path
         style="fill:#d27ca0;fill-opacity:1"
         d="M 20.125,4.625 Q 20.25,4.25 20.625,4.125 21,4 21.5,4 H 22 V 4.5 Q 22,5 21.875,5.375 21.75,5.75 22.03125,6.03125 L 22.3125,6.3125 22.375,6.25 22.4375,6.1875 22.3125,6.3125 Q 22.1875,6.4375 22.125,6.625 L 22.0625,6.8125 22.15625,6.53125 22.25,6.25 22.125,6.625 Q 22,7 22,7.5 V 8 H 21.5 Q 21,8 20.5,8 H 20 V 7.5 Q 20,7 20.125,6.625 20.25,6.25 19.96875,5.96875 L 19.6875,5.6875 19.625,5.75 19.5625,5.8125 19.6875,5.6875 Q 19.8125,5.5625 19.875,5.375 L 19.9375,5.1875 19.84375,5.46875 19.75,5.75 19.875,5.375 Q 20,5 20.125,4.625 M 22.125,4 H 22 21.625 21.25 21.5 q 0.25,0 0.5,0 h 0.25 -0.125"
         id="path10476"
         inkscape:connector-curvature="0" />
      <path
         style="fill:#f8aebe;fill-opacity:1"
         d="M 22,4.5 V 4 h 0.5 q 0.5,0 1,0 0.5,0 1,0 0.5,0 1,0 H 26 v 0.5 q 0,0.5 0,1 V 6 H 25.5 Q 25,6 24.5,6 H 24 23.5 Q 23,6 22.625,6.125 L 22.25,6.25 22.53125,6.15625 22.8125,6.0625 22.625,6.125 Q 22.4375,6.1875 22.3125,6.3125 L 22.1875,6.4375 22.25,6.375 22.3125,6.3125 22.03125,6.03125 Q 21.75,5.75 21.875,5.375 22,5 22,4.5 m 4,1.625 V 6 5.625 5.25 5.5 Q 26,5.75 26,6 V 6.25 6.125 M 22.375,4 H 22 21.875 21.75 22 q 0.25,0 0.5,0 h 0.25 -0.375"
         id="path10478"
         inkscape:connector-curvature="0" />
      <path
         style="fill:#4f253a;fill-opacity:1"
         d="M 26,4.5 V 4 h 0.5 q 0.5,0 1,0 H 28 v 0.5 q 0,0.5 0,1 V 6 6.5 q 0,0.5 0.125,0.875 0.125,0.375 0.5,0.5 Q 29,8 29.5,8 H 30 v 0.5 q 0,0.5 0,1 0,0.5 0,1 0,0.5 0,1 V 12 H 29.5 Q 29,12 28.625,11.875 28.25,11.75 28.125,11.375 28,11 28,10.5 28,10 28,9.5 28,9 27.875,8.625 27.75,8.25 27.375,8.125 27,8 26.625,8.125 26.25,8.25 26.125,8.625 26,9 26,9.5 V 10 h -0.5 q -0.5,0 -1,0 -0.5,0 -1,0 -0.5,0 -1,0 H 22 V 9.5 Q 22,9 22,8.5 V 8 h 0.5 q 0.5,0 1,0 H 24 24.5 Q 25,8 25.375,7.875 25.75,7.75 25.875,7.375 26,7 26,6.5 26,6 26,5.5 26,5 26,4.5 m 4,7.625 V 12 11.625 11.25 11.5 q 0,0.25 0,0.5 v 0.25 -0.125 m 0,-3.75 V 8 7.875 7.75 8 q 0,0.25 0,0.5 V 8.75 8.375"
         id="path10480"
         inkscape:connector-curvature="0" />
      <path
         style="fill:#c8426b;fill-opacity:1"
         d="M 28,4.5 V 4 h 0.5 q 0.5,0 0.875,0.125 0.375,0.125 0.5,0.5 Q 30,5 30,5.5 V 6 H 29.5 Q 29,6 28.5,6 H 28 V 5.5 q 0,-0.5 0,-1"
         id="path10482"
         inkscape:connector-curvature="0" />
      <path
         style="fill:#c8426b;fill-opacity:1"
         d="M 4.125,6.625 Q 4.25,6.25 4.625,6.125 5,6 5.5,6 6,6 6.5,6 7,6 7.5,6 H 8 V 6.5 Q 8,7 8,7.5 V 8 H 7.5 Q 7,8 6.5,8 6,8 5.5,8 5,8 4.5,8 H 4 V 7.5 Q 4,7 4.125,6.625 M 7.625,8 H 8 8.125 8.25 8 Q 7.75,8 7.5,8 H 7.25 7.625"
         id="path10484"
         inkscape:connector-curvature="0" />
      <path
         style="fill:#b61239;fill-opacity:1"
         d="M 8,6.5 V 6 H 8.5 Q 9,6 9.5,6 H 10 V 6.5 Q 10,7 9.875,7.375 9.75,7.75 9.375,7.875 9,8 8.5,8 H 8 V 7.5 Q 8,7 8,6.5 M 7.875,8 H 8 8.375 8.75 8.5 Q 8.25,8 8,8 H 7.75 7.875 m 2.25,-2 H 10 9.625 9.25 9.5 Q 9.75,6 10,6 h 0.25 -0.125"
         id="path10486"
         inkscape:connector-curvature="0" />
      <path
         style="fill:#4f253a;fill-opacity:1"
         d="M 10,6.5 V 6 h 0.5 q 0.5,0 0.875,0.125 0.375,0.125 0.5,0.5 Q 12,7 12,7.5 V 8 7.625 7.25 7.5 q 0,0.25 0.125,0.375 L 12.25,8 12.1875,7.9375 12.125,7.875 11.5625,7.9375 Q 11,8 10.625,8.125 10.25,8.25 10.125,8.625 10,9 10,9.5 V 10 H 9.5 Q 9,10 8.5,10 8,10 7.5,10 7,10 6.5,10 H 6 V 9.5 Q 6,9 6,8.5 V 8 H 6.5 Q 7,8 7.5,8 8,8 8.5,8 9,8 9.375,7.875 9.75,7.75 9.875,7.375 10,7 10,6.5 M 6.375,8 H 6 5.875 5.75 6 Q 6.25,8 6.5,8 H 6.75 6.375 M 6,9.625 V 10 10.125 10.25 10 Q 6,9.75 6,9.5 V 9.25 9.625 M 9.625,10 H 10 10.125 10.25 10 Q 9.75,10 9.5,10 H 9.25 9.625 m 0.75,-4 H 10 9.875 9.75 10 q 0.25,0 0.5,0 h 0.25 -0.375"
         id="path10488"
         inkscape:connector-curvature="0" />
      <path
         style="fill:#e381a8;fill-opacity:1"
         d="M 18.125,6.625 Q 18.25,6.25 18.625,6.125 19,6 19.375,5.875 L 19.75,5.75 19.46875,5.84375 19.1875,5.9375 19.375,5.875 Q 19.5625,5.8125 19.6875,5.6875 L 19.8125,5.5625 19.75,5.625 19.6875,5.6875 19.96875,5.96875 Q 20.25,6.25 20.125,6.625 20,7 20,7.5 V 8 H 19.5 Q 19,8 18.5,8 18,8 18,7.5 18,7 18.125,6.625"
         id="path10490"
         inkscape:connector-curvature="0" />
      <path
         style="fill:#92143b;fill-opacity:1"
         d="M 22.125,6.625 Q 22.25,6.25 22.625,6.125 23,6 23.5,6 H 24 v 0.5 q 0,0.5 0,1 V 8 H 23.5 Q 23,8 22.5,8 H 22 V 7.5 Q 22,7 22.125,6.625"
         id="path10492"
         inkscape:connector-curvature="0" />
      <path
         style="fill:#c8426b;fill-opacity:1"
         d="M 24,6.5 V 6 h 0.5 q 0.5,0 1,0 H 26 V 6.5 Q 26,7 25.875,7.375 25.75,7.75 25.375,7.875 25,8 24.5,8 H 24 V 7.5 Q 24,7 24,6.5 M 26,6.375 V 6 5.875 5.75 6 q 0,0.25 0,0.5 V 6.75 6.375"
         id="path10494"
         inkscape:connector-curvature="0" />
      <path
         style="fill:#92143b;fill-opacity:1"
         d="M 28,6.5 V 6 h 0.5 q 0.5,0 1,0 H 30 v 0.5 q 0,0.5 0,1 V 8 H 29.5 Q 29,8 28.625,7.875 28.25,7.75 28.125,7.375 28,7 28,6.5 m 2,1.625 V 8 7.625 7.25 7.5 Q 30,7.75 30,8 V 8.25 8.125"
         id="path10496"
         inkscape:connector-curvature="0" />
      <path
         style="fill:#401a1a;fill-opacity:1"
         d="M 2,8.5 V 8 H 2.5 Q 3,8 3.5,8 H 4 v 0.5 q 0,0.5 0,1 0,0.5 0,1 0,0.5 0,1 V 12 H 3.5 Q 3,12 2.5,12 H 2 V 11.5 Q 2,11 2,10.5 2,10 2,9.5 2,9 2,8.5 m 0,3.125 V 12 12.125 12.25 12 q 0,-0.25 0,-0.5 v -0.25 0.375 M 2,7.875 V 8 8.375 8.75 8.5 Q 2,8.25 2,8 V 7.75 7.875"
         id="path10498"
         inkscape:connector-curvature="0" />
      <path
         style="fill:#790735;fill-opacity:1"
         d="M 4,8.5 V 8 H 4.5 Q 5,8 5.5,8 H 6 v 0.5 q 0,0.5 0,1 0,0.5 0,1 0,0.5 0.125,0.875 0.125,0.375 0.5,0.5 Q 7,12 7.5,12 q 0.5,0 1,0 0.5,0 1,0 H 10 v 0.5 q 0,0.5 0.125,0.875 0.125,0.375 0.5,0.5 Q 11,14 11.5,14 H 12 v 0.5 q 0,0.5 0.125,0.875 L 12.25,15.75 12.15625,15.46875 12.0625,15.1875 12.125,15.375 q 0.0625,0.1875 0.1875,0.3125 l 0.125,0.125 L 12.375,15.75 12.3125,15.6875 12,16 l -0.3125,0.3125 0.0625,0.0625 0.0625,0.0625 -0.125,-0.125 Q 11.5625,16.1875 11.375,16.125 L 11.1875,16.0625 11.46875,16.15625 11.75,16.25 11.375,16.125 Q 11,16 10.625,15.875 10.25,15.75 10.125,15.375 10,15 9.875,14.625 9.75,14.25 9.375,14.125 9,14 8.5,14 8,14 7.5,14 7,14 6.625,13.875 6.25,13.75 6.125,13.375 6,13 5.875,12.625 5.75,12.25 5.375,12.125 5,12 4.5,12 H 4 V 11.5 Q 4,11 4,10.5 4,10 4,9.5 4,9 4,8.5 M 12.125,14 H 12 11.625 11.25 11.5 q 0.25,0 0.5,0 h 0.25 -0.125 m -2,-2 H 10 9.625 9.25 9.5 q 0.25,0 0.5,0 h 0.25 -0.125 m -4,-4 H 6 5.625 5.25 5.5 Q 5.75,8 6,8 H 6.25 6.125"
         id="path10500"
         inkscape:connector-curvature="0" />
      <path
         style="fill:#92143b;fill-opacity:1"
         d="M 10.125,8.625 Q 10.25,8.25 10.625,8.125 11,8 11.5625,7.9375 L 12.125,7.875 12.0625,7.8125 12,7.75 12.125,7.875 Q 12.25,8 12.5,8 H 12.75 12.375 12 12.5 q 0.5,0 1,0 H 14 13.625 13.25 13.5 q 0.25,0 0.375,-0.125 L 14,7.75 13.9375,7.8125 13.875,7.875 13.9375,8.4375 Q 14,9 14,9.5 V 10 H 13.5 Q 13,10 12.625,9.875 12.25,9.75 11.96875,10.03125 l -0.28125,0.28125 0.0625,0.0625 0.0625,0.0625 -0.125,-0.125 Q 11.5625,10.1875 11.375,10.125 L 11.1875,10.0625 11.46875,10.15625 11.75,10.25 11.375,10.125 Q 11,10 10.5,10 H 10 V 9.5 Q 10,9 10.125,8.625 M 9.875,10 H 10 10.375 10.75 10.5 Q 10.25,10 10,10 H 9.75 9.875"
         id="path10502"
         inkscape:connector-curvature="0" />
      <path
         style="fill:#790735;fill-opacity:1"
         d="M 13.9375,8.4375 13.875,7.875 14.4375,7.9375 Q 15,8 15.375,8.125 q 0.375,0.125 0.5,0.5 0.125,0.375 0,0.75 -0.125,0.375 -0.5,0.5 Q 15,10 14.5,10 H 14 V 9.5 Q 14,9 13.9375,8.4375"
         id="path10504"
         inkscape:connector-curvature="0" />
      <path
         style="fill:#790735;fill-opacity:1"
         d="M 18.0625,8.4375 18.125,7.875 18.0625,7.8125 18,7.75 18.125,7.875 Q 18.25,8 18.5,8 H 18.75 18.375 18 18.5 q 0.5,0 1,0 H 20 v 0.5 q 0,0.5 0.125,0.875 0.125,0.375 0.5,0.5 Q 21,10 21.5,10 H 22 v 0.5 q 0,0.5 0.125,0.875 0.125,0.375 0.5,0.5 Q 23,12 23.5,12 H 24 v 0.5 q 0,0.5 -0.125,0.875 -0.125,0.375 -0.5,0.5 -0.375,0.125 -0.75,0 -0.375,-0.125 -0.5,-0.5 Q 22,13 21.875,12.625 21.75,12.25 21.375,12.125 21,12 20.625,11.875 20.25,11.75 20.125,11.375 20,11 19.875,10.625 19.75,10.25 19.375,10.125 19,10 18.625,9.875 18.25,9.75 18.125,9.375 18,9 18.0625,8.4375 M 20.125,8 H 20 19.625 19.25 19.5 q 0.25,0 0.5,0 h 0.25 -0.125"
         id="path10506"
         inkscape:connector-curvature="0" />
      <path
         style="fill:#b61239;fill-opacity:1"
         d="M 20,8.5 V 8 h 0.5 q 0.5,0 1,0 H 22 v 0.5 q 0,0.5 0,1 V 10 H 21.5 Q 21,10 20.625,9.875 20.25,9.75 20.125,9.375 20,9 20,8.5 M 20.375,8 H 20 19.875 19.75 20 q 0.25,0 0.5,0 h 0.25 -0.375"
         id="path10508"
         inkscape:connector-curvature="0" />
      <path
         style="fill:#f8aebe;fill-opacity:1"
         d="m 26.125,8.625 q 0.125,-0.375 0.5,-0.5 0.375,-0.125 0.75,0 0.375,0.125 0.5,0.5 Q 28,9 28,9.5 V 10 h -0.5 q -0.5,0 -1,0 H 26 V 9.5 Q 26,9 26.125,8.625 M 28,10.125 V 10 9.625 9.25 9.5 q 0,0.25 0,0.5 v 0.25 -0.125"
         id="path10510"
         inkscape:connector-curvature="0" />
      <path
         style="fill:#c8426b;fill-opacity:1"
         d="M 6,10.5 V 10 h 0.5 q 0.5,0 1,0 H 8 v 0.5 q 0,0.5 0,1 V 12 H 7.5 Q 7,12 6.625,11.875 6.25,11.75 6.125,11.375 6,11 6,10.5 M 7.625,12 H 8 8.125 8.25 8 Q 7.75,12 7.5,12 H 7.25 7.625 m 0.5,-2 H 8 7.625 7.25 7.5 Q 7.75,10 8,10 H 8.25 8.125 M 6,9.875 V 10 10.375 10.75 10.5 Q 6,10.25 6,10 V 9.75 9.875"
         id="path10512"
         inkscape:connector-curvature="0" />
      <path
         style="fill:#b61239;fill-opacity:1"
         d="M 8,10.5 V 10 h 0.5 q 0.5,0 1,0 0.5,0 1,0 0.5,0 0.875,0.125 0.375,0.125 0.5,0.5 Q 12,11 12,11.5 V 12 h -0.5 q -0.5,0 -1,0 -0.5,0 -1,0 -0.5,0 -1,0 H 8 V 11.5 Q 8,11 8,10.5 M 7.875,12 H 8 8.375 8.75 8.5 Q 8.25,12 8,12 H 7.75 7.875 m 3.75,0 H 12 12.125 12.25 12 q -0.25,0 -0.5,0 h -0.25 0.375 M 8.375,10 H 8 7.875 7.75 8 q 0.25,0 0.5,0 H 8.75 8.375"
         id="path10514"
         inkscape:connector-curvature="0" />
      <path
         style="fill:#c8426b;fill-opacity:1"
         d="M 11.875,10.625 11.75,10.25 11.84375,10.53125 11.9375,10.8125 11.875,10.625 q -0.0625,-0.1875 -0.1875,-0.3125 l -0.125,-0.125 0.0625,0.0625 0.0625,0.0625 0.28125,-0.28125 Q 12.25,9.75 12.625,9.875 13,10 13.5,10 H 14 v 0.5 q 0,0.5 -0.125,0.875 -0.125,0.375 -0.5,0.5 Q 13,12 12.5,12 H 12 V 11.5 Q 12,11 11.875,10.625 m 0,1.375 H 12 12.375 12.75 12.5 q -0.25,0 -0.5,0 h -0.25 0.125"
         id="path10516"
         inkscape:connector-curvature="0" />
      <path
         style="fill:#d27ca0;fill-opacity:1"
         d="m 16.125,10.625 q 0.125,-0.375 0.5,-0.5 0.375,-0.125 0.75,0 0.375,0.125 0.5,0.5 0.125,0.375 0.25,0.75 0.125,0.375 0.5,0.5 0.375,0.125 0.75,0.25 0.375,0.125 0.5,0.5 Q 20,13 20.125,13.375 L 20.25,13.75 20.15625,13.46875 20.0625,13.1875 20.125,13.375 q 0.0625,0.1875 0.1875,0.3125 l 0.125,0.125 L 20.375,13.75 20.3125,13.6875 20,14 l -0.3125,0.3125 0.0625,0.0625 0.0625,0.0625 -0.125,-0.125 Q 19.5625,14.1875 19.375,14.125 L 19.1875,14.0625 19.46875,14.15625 19.75,14.25 19.375,14.125 Q 19,14 18.5,14 H 18 V 13.5 Q 18,13 17.875,12.625 17.75,12.25 17.375,12.125 17,12 16.5,12 H 16 V 11.5 Q 16,11 16.125,10.625 M 15.875,12 H 16 16.375 16.75 16.5 q -0.25,0 -0.5,0 h -0.25 0.125 M 18,13.625 V 14 14.125 14.25 14 q 0,-0.25 0,-0.5 v -0.25 0.375"
         id="path10518"
         inkscape:connector-curvature="0" />
      <path
         style="fill:#c8426b;fill-opacity:1"
         d="M 22,10.5 V 10 h 0.5 q 0.5,0 1,0 H 24 v 0.5 q 0,0.5 0,1 V 12 H 23.5 Q 23,12 22.625,11.875 22.25,11.75 22.125,11.375 22,11 22,10.5 M 24.125,10 H 24 23.625 23.25 23.5 q 0.25,0 0.5,0 h 0.25 -0.125"
         id="path10520"
         inkscape:connector-curvature="0" />
      <path
         style="fill:#b61239;fill-opacity:1"
         d="M 24,10.5 V 10 h 0.5 q 0.5,0 1,0 H 26 v 0.5 q 0,0.5 0,1 V 12 h -0.5 q -0.5,0 -1,0 H 24 v -0.5 q 0,-0.5 0,-1 M 25.625,12 H 26 26.125 26.25 26 q -0.25,0 -0.5,0 h -0.25 0.375 m -1.25,-2 H 24 23.875 23.75 24 q 0.25,0 0.5,0 h 0.25 -0.375"
         id="path10522"
         inkscape:connector-curvature="0" />
      <path
         style="fill:#c8426b;fill-opacity:1"
         d="M 26,10.5 V 10 h 0.5 q 0.5,0 1,0 H 28 v 0.5 q 0,0.5 0.125,0.875 0.125,0.375 0.5,0.5 Q 29,12 29.5,12 H 30 v 0.5 q 0,0.5 -0.125,0.875 -0.125,0.375 -0.5,0.5 Q 29,14 28.5,14 H 28 V 13.5 Q 28,13 27.875,12.625 27.75,12.25 27.375,12.125 27,12 26.5,12 H 26 v -0.5 q 0,-0.5 0,-1 M 25.875,12 H 26 26.375 26.75 26.5 q -0.25,0 -0.5,0 h -0.25 0.125 M 30,12.375 V 12 11.875 11.75 12 q 0,0.25 0,0.5 v 0.25 -0.375 m -2,-2 V 10 9.875 9.75 10 q 0,0.25 0,0.5 v 0.25 -0.375"
         id="path10524"
         inkscape:connector-curvature="0" />
      <path
         style="fill:#b61239;fill-opacity:1"
         d="M 2,12.5 V 12 h 0.5 q 0.5,0 1,0 H 4 v 0.5 q 0,0.5 0.125,0.875 0.125,0.375 0.5,0.5 Q 5,14 5.375,14.125 5.75,14.25 5.875,14.625 6,15 6,15.5 V 16 H 5.5 Q 5,16 4.5,16 H 4 V 15.5 Q 4,15 3.875,14.625 3.75,14.25 3.375,14.125 3,14 2.625,13.875 2.25,13.75 2.125,13.375 2,13 2,12.5 m 2,3.125 V 16 16.125 16.25 16 q 0,-0.25 0,-0.5 v -0.25 0.375 M 2,11.875 V 12 12.375 12.75 12.5 Q 2,12.25 2,12 v -0.25 0.125"
         id="path10526"
         inkscape:connector-curvature="0" />
      <path
         style="fill:#4f253a;fill-opacity:1"
         d="M 4,12.5 V 12 h 0.5 q 0.5,0 0.875,0.125 0.375,0.125 0.5,0.5 Q 6,13 6.125,13.375 6.25,13.75 6.625,13.875 7,14 7.5,14 q 0.5,0 1,0 0.5,0 0.875,0.125 0.375,0.125 0.5,0.5 Q 10,15 10.125,15.375 L 10.25,15.75 10.15625,15.46875 10.0625,15.1875 10.125,15.375 q 0.0625,0.1875 0.1875,0.3125 l 0.125,0.125 L 10.375,15.75 10.3125,15.6875 10,16 9.6875,16.3125 9.75,16.375 9.8125,16.4375 9.6875,16.3125 Q 9.5625,16.1875 9.375,16.125 L 9.1875,16.0625 9.46875,16.15625 9.75,16.25 9.375,16.125 Q 9,16 8.5,16 8,16 7.5,16 7,16 6.5,16 H 6 V 15.5 Q 6,15 5.875,14.625 5.75,14.25 5.375,14.125 5,14 4.625,13.875 4.25,13.75 4.125,13.375 4,13 4,12.5"
         id="path10528"
         inkscape:connector-curvature="0" />
      <path
         style="fill:#c8426b;fill-opacity:1"
         d="m 14.125,12.625 q 0.125,-0.375 0.5,-0.5 Q 15,12 15.5,12 H 16 v 0.5 q 0,0.5 0,1 0,0.5 -0.5,0.5 -0.5,0 -0.875,0.125 -0.375,0.125 -0.5,0.5 -0.125,0.375 -0.25,0.75 -0.125,0.375 -0.5,0.5 -0.375,0.125 -0.75,0 -0.375,-0.125 -0.5,-0.5 Q 12,15 12,14.5 V 14 h 0.5 q 0.5,0 0.875,-0.125 0.375,-0.125 0.5,-0.5 Q 14,13 14.125,12.625 M 12.375,14 H 12 11.875 11.75 12 q 0.25,0 0.5,0 h 0.25 -0.375"
         id="path10530"
         inkscape:connector-curvature="0" />
      <path
         style="fill:#92143b;fill-opacity:1"
         d="M 16,12.5 V 12 h 0.5 q 0.5,0 0.875,0.125 0.375,0.125 0.5,0.5 Q 18,13 18,13.5 q 0,0.5 0,1 0,0.5 -0.125,0.875 -0.125,0.375 -0.5,0.5 Q 17,16 16.5,16 q -0.5,0 -1,0 -0.5,0 -0.875,0.125 -0.375,0.125 -0.5,0.5 -0.125,0.375 0,0.75 L 14.25,17.75 14.15625,17.46875 14.0625,17.1875 14.125,17.375 q 0.0625,0.1875 0.1875,0.3125 l 0.125,0.125 L 14.375,17.75 14.3125,17.6875 14,18 l -0.3125,0.3125 0.0625,0.0625 0.0625,0.0625 -0.125,-0.125 Q 13.5625,18.1875 13.375,18.125 L 13.1875,18.0625 13.46875,18.15625 13.75,18.25 13.375,18.125 Q 13,18 12.625,17.875 12.25,17.75 12.125,17.375 12,17 11.875,16.625 L 11.75,16.25 11.84375,16.53125 11.9375,16.8125 11.875,16.625 q -0.0625,-0.1875 -0.1875,-0.3125 l -0.125,-0.125 0.0625,0.0625 0.0625,0.0625 L 12,16 12.3125,15.6875 12.25,15.625 l -0.0625,-0.0625 0.125,0.125 q 0.125,0.125 0.3125,0.1875 L 12.8125,15.9375 12.53125,15.84375 12.25,15.75 l 0.375,0.125 q 0.375,0.125 0.75,0 0.375,-0.125 0.5,-0.5 Q 14,15 14.125,14.625 14.25,14.25 14.625,14.125 15,14 15.5,14 16,14 16,13.5 q 0,-0.5 0,-1"
         id="path10532"
         inkscape:connector-curvature="0" />
      <path
         style="fill:#000000;fill-opacity:0"
         d="M 0,14.5 V 14 h 0.5 q 0.5,0 0.875,0.125 0.375,0.125 0.5,0.5 Q 2,15 2,15.5 q 0,0.5 0,1 0,0.5 0.125,0.875 0.125,0.375 0.5,0.5 Q 3,18 3.375,18.125 3.75,18.25 3.875,18.625 4,19 4,19.5 q 0,0.5 0,1 0,0.5 0.125,0.875 0.125,0.375 0.5,0.5 0.375,0.125 0.75,0.25 0.375,0.125 0.5,0.5 0.125,0.375 0.25,0.75 0.125,0.375 0.5,0.5 0.375,0.125 0.75,0.25 0.375,0.125 0.5,0.5 0.125,0.375 0.25,0.75 0.125,0.375 0.5,0.5 0.375,0.125 0.75,0.25 0.375,0.125 0.5,0.5 0.125,0.375 0.25,0.75 0.125,0.375 0.5,0.5 0.375,0.125 0.75,0.25 0.375,0.125 0.5,0.5 0.125,0.375 0.25,0.75 0.125,0.375 0.5,0.5 0.375,0.125 0.75,0.25 0.375,0.125 0.5,0.5 Q 14,31 14,31.5 V 32 H 13.5 13 12.5 12 11.5 11 10.5 10 9.5 9 8.5 8 7.5 7 6.5 6 5.5 5 4.5 4 3.5 3 2.5 2 1.5 1 0.5 0 V 31.5 31 30.5 30 29.5 29 28.5 28 27.5 27 26.5 26 25.5 25 24.5 24 23.5 23 22.5 22 21.5 21 20.5 20 19.5 19 18.5 18 17.5 17 16.5 16 15.5 15 14.5"
         id="path10534"
         inkscape:connector-curvature="0" />
      <path
         style="fill:#b61239;fill-opacity:1"
         d="M 18,14.5 V 14 h 0.5 q 0.5,0 0.875,0.125 0.375,0.125 0.5,0.5 Q 20,15 20,15.5 V 16 15.625 15.25 15.5 q 0,0.25 0.125,0.375 L 20.25,16 20.1875,15.9375 20.125,15.875 19.5625,15.9375 Q 19,16 18.625,16.125 18.25,16.25 18.125,16.625 18,17 17.875,17.375 17.75,17.75 17.375,17.875 17,18 16.5,18 H 16 15.5 q -0.5,0 -0.875,-0.125 -0.375,-0.125 -0.5,-0.5 -0.125,-0.375 0,-0.75 0.125,-0.375 0.5,-0.5 Q 15,16 15.5,16 q 0.5,0 1,0 0.5,0 0.875,-0.125 0.375,-0.125 0.5,-0.5 Q 18,15 18,14.5 m 0,-0.625 V 14 14.375 14.75 14.5 q 0,-0.25 0,-0.5 v -0.25 0.125"
         id="path10536"
         inkscape:connector-curvature="0" />
      <path
         style="fill:#f8aebe;fill-opacity:1"
         d="M 19.875,14.625 19.75,14.25 19.84375,14.53125 19.9375,14.8125 19.875,14.625 q -0.0625,-0.1875 -0.1875,-0.3125 l -0.125,-0.125 0.0625,0.0625 0.0625,0.0625 L 20,14 20.3125,13.6875 20.25,13.625 l -0.0625,-0.0625 0.125,0.125 q 0.125,0.125 0.3125,0.1875 L 20.8125,13.9375 20.53125,13.84375 20.25,13.75 l 0.375,0.125 q 0.375,0.125 0.75,0.25 0.375,0.125 0.5,0.5 Q 22,15 22,15.5 V 16 H 21.5 Q 21,16 20.5,16 20,16 20,15.5 20,15 19.875,14.625"
         id="path10538"
         inkscape:connector-curvature="0" />
      <path
         style="fill:#c8426b;fill-opacity:1"
         d="m 24.125,14.625 q 0.125,-0.375 0.5,-0.5 Q 25,14 25.5,14 H 26 v 0.5 q 0,0.5 0,1 V 16 h -0.5 q -0.5,0 -1,0 H 24 v -0.5 q 0,-0.5 0.125,-0.875 m 2,-0.625 H 26 25.625 25.25 25.5 q 0.25,0 0.5,0 h 0.25 -0.125"
         id="path10540"
         inkscape:connector-curvature="0" />
      <path
         style="fill:#b61239;fill-opacity:1"
         d="M 26,14.5 V 14 h 0.5 q 0.5,0 1,0 H 28 v 0.5 q 0,0.5 0,1 V 16 h -0.5 q -0.5,0 -1,0 H 26 v -0.5 q 0,-0.5 0,-1 m 2,1.625 V 16 15.625 15.25 15.5 q 0,0.25 0,0.5 v 0.25 -0.125 M 26.375,14 H 26 25.875 25.75 26 q 0.25,0 0.5,0 h 0.25 -0.375"
         id="path10542"
         inkscape:connector-curvature="0" />
      <path
         style="fill:#000000;fill-opacity:0"
         d="m 30.125,14.625 q 0.125,-0.375 0.5,-0.5 Q 31,14 31.5,14 H 32 V 14.5 15 15.5 16 16.5 17 17.5 18 18.5 19 19.5 20 20.5 21 21.5 22 22.5 23 23.5 24 24.5 25 25.5 26 26.5 27 27.5 28 28.5 29 29.5 30 30.5 31 31.5 32 H 31.5 31 30.5 30 29.5 29 28.5 28 27.5 27 26.5 26 25.5 25 24.5 24 23.5 23 22.5 22 21.5 21 20.5 20 19.5 19 18.5 18 v -0.5 q 0,-0.5 0.125,-0.875 0.125,-0.375 0.5,-0.5 Q 19,30 19.375,29.875 19.75,29.75 19.875,29.375 20,29 20.125,28.625 20.25,28.25 20.625,28.125 21,28 21.375,27.875 21.75,27.75 21.875,27.375 22,27 22.125,26.625 22.25,26.25 22.625,26.125 23,26 23.375,25.875 23.75,25.75 23.875,25.375 24,25 24.125,24.625 24.25,24.25 24.625,24.125 25,24 25.375,23.875 25.75,23.75 25.875,23.375 26,23 26.125,22.625 26.25,22.25 26.625,22.125 27,22 27.375,21.875 27.75,21.75 27.875,21.375 28,21 28,20.5 q 0,-0.5 0,-1 0,-0.5 0.125,-0.875 0.125,-0.375 0.5,-0.5 Q 29,18 29.375,17.875 29.75,17.75 29.875,17.375 30,17 30,16.5 q 0,-0.5 0,-1 0,-0.5 0.125,-0.875"
         id="path10544"
         inkscape:connector-curvature="0" />
      <path
         style="fill:#790735;fill-opacity:1"
         d="M 4,16.5 V 16 h 0.5 q 0.5,0 1,0 H 6 v 0.5 q 0,0.5 0.125,0.875 0.125,0.375 0.5,0.5 Q 7,18 7.5,18 H 8 v 0.5 Q 8,19 8.125,19.375 L 8.25,19.75 8.15625,19.46875 8.0625,19.1875 8.125,19.375 q 0.0625,0.1875 0.1875,0.3125 l 0.125,0.125 L 8.375,19.75 8.3125,19.6875 8,20 7.6875,20.3125 7.75,20.375 7.8125,20.4375 7.6875,20.3125 Q 7.5625,20.1875 7.375,20.125 L 7.1875,20.0625 7.46875,20.15625 7.75,20.25 7.375,20.125 Q 7,20 6.5,20 H 6 V 19.5 Q 6,19 5.875,18.625 5.75,18.25 5.375,18.125 5,18 4.625,17.875 4.25,17.75 4.125,17.375 4,17 4,16.5 m 2,3.125 V 20 20.125 20.25 20 q 0,-0.25 0,-0.5 v -0.25 0.375 M 8.125,18 H 8 7.625 7.25 7.5 Q 7.75,18 8,18 H 8.25 8.125 M 4,15.875 V 16 16.375 16.75 16.5 Q 4,16.25 4,16 v -0.25 0.125"
         id="path10546"
         inkscape:connector-curvature="0" />
      <path
         style="fill:#401a1a;fill-opacity:1"
         d="M 6,16.5 V 16 h 0.5 q 0.5,0 1,0 0.5,0 1,0 0.5,0 0.875,0.125 0.375,0.125 0.5,0.5 Q 10,17 10,17.5 V 18 H 9.5 Q 9,18 8.5,18 8,18 7.5,18 7,18 6.625,17.875 6.25,17.75 6.125,17.375 6,17 6,16.5"
         id="path10548"
         inkscape:connector-curvature="0" />
      <path
         style="fill:#552b32;fill-opacity:1"
         d="M 9.875,16.625 9.75,16.25 9.84375,16.53125 9.9375,16.8125 9.875,16.625 Q 9.8125,16.4375 9.6875,16.3125 L 9.5625,16.1875 9.625,16.25 9.6875,16.3125 10,16 10.3125,15.6875 10.25,15.625 l -0.0625,-0.0625 0.125,0.125 q 0.125,0.125 0.3125,0.1875 L 10.8125,15.9375 10.53125,15.84375 10.25,15.75 l 0.375,0.125 q 0.375,0.125 0.75,0.25 0.375,0.125 0.5,0.5 Q 12,17 12.125,17.375 L 12.25,17.75 12.15625,17.46875 12.0625,17.1875 12.125,17.375 q 0.0625,0.1875 0.1875,0.3125 l 0.125,0.125 L 12.375,17.75 12.3125,17.6875 12.03125,17.96875 Q 11.75,18.25 11.375,18.125 11,18 10.5,18 H 10 V 17.5 Q 10,17 9.875,16.625"
         id="path10550"
         inkscape:connector-curvature="0" />
      <path
         style="fill:#92143b;fill-opacity:1"
         d="m 18.125,16.625 q 0.125,-0.375 0.5,-0.5 Q 19,16 19.5625,15.9375 L 20.125,15.875 20.0625,16.4375 Q 20,17 19.875,17.375 19.75,17.75 19.375,17.875 19,18 18.625,18.125 18.25,18.25 18.125,18.625 18,19 18,19.5 V 20 h -0.5 q -0.5,0 -1,0 H 16 v -0.5 q 0,-0.5 0,-1 V 18 h 0.5 q 0.5,0 0.875,-0.125 0.375,-0.125 0.5,-0.5 Q 18,17 18.125,16.625"
         id="path10552"
         inkscape:connector-curvature="0" />
      <path
         style="fill:#790735;fill-opacity:1"
         d="M 20.0625,16.4375 20.125,15.875 20.0625,15.8125 20,15.75 20.125,15.875 Q 20.25,16 20.5,16 H 20.75 20.375 20 20.5 q 0.5,0 1,0 H 22 v 0.5 q 0,0.5 -0.125,0.875 -0.125,0.375 -0.5,0.5 Q 21,18 20.625,18.125 20.25,18.25 20.125,18.625 20,19 20,19.5 V 20 h -0.5 q -0.5,0 -1,0 H 18 v -0.5 q 0,-0.5 0.125,-0.875 0.125,-0.375 0.5,-0.5 Q 19,18 19.375,17.875 19.75,17.75 19.875,17.375 20,17 20.0625,16.4375"
         id="path10554"
         inkscape:connector-curvature="0" />
      <path
         style="fill:#401a1a;fill-opacity:1"
         d="M 22,16.5 V 16 h 0.5 q 0.5,0 1,0 H 24 v 0.5 q 0,0.5 0,1 V 18 h -0.5 q -0.5,0 -0.875,0.125 -0.375,0.125 -0.5,0.5 Q 22,19 22,19.5 V 20 h -0.5 q -0.5,0 -1,0 H 20 v -0.5 q 0,-0.5 0.125,-0.875 0.125,-0.375 0.5,-0.5 Q 21,18 21.375,17.875 21.75,17.75 21.875,17.375 22,17 22,16.5"
         id="path10556"
         inkscape:connector-curvature="0" />
      <path
         style="fill:#790735;fill-opacity:1"
         d="M 24,16.5 V 16 h 0.5 q 0.5,0 1,0 H 26 v 0.5 q 0,0.5 -0.125,0.875 -0.125,0.375 -0.5,0.5 Q 25,18 24.5,18 H 24 v -0.5 q 0,-0.5 0,-1"
         id="path10558"
         inkscape:connector-curvature="0" />
      <path
         style="fill:#552b32;fill-opacity:1"
         d="M 26,16.5 V 16 h 0.5 q 0.5,0 1,0 H 28 v 0.5 q 0,0.5 -0.125,0.875 -0.125,0.375 -0.5,0.5 Q 27,18 26.625,18.125 L 26.25,18.25 26.53125,18.15625 26.8125,18.0625 26.625,18.125 q -0.1875,0.0625 -0.3125,0.1875 l -0.125,0.125 L 26.25,18.375 26.3125,18.3125 26,18 25.6875,17.6875 25.625,17.75 l -0.0625,0.0625 0.125,-0.125 q 0.125,-0.125 0.1875,-0.3125 L 25.9375,17.1875 25.84375,17.46875 25.75,17.75 25.875,17.375 Q 26,17 26,16.5 m 2,-0.125 V 16 15.875 15.75 16 q 0,0.25 0,0.5 v 0.25 -0.375"
         id="path10560"
         inkscape:connector-curvature="0" />
      <path
         style="fill:#b61239;fill-opacity:1"
         d="M 8,18.5 V 18 h 0.5 q 0.5,0 1,0 H 10 v 0.5 q 0,0.5 0,1 V 20 H 9.5 Q 9,20 8.625,19.875 8.25,19.75 8.125,19.375 8,19 8,18.5 M 9.625,20 H 10 10.125 10.25 10 Q 9.75,20 9.5,20 H 9.25 9.625 m 0.5,-2 H 10 9.625 9.25 9.5 q 0.25,0 0.5,0 h 0.25 -0.125 m -1.75,0 H 8 7.875 7.75 8 q 0.25,0 0.5,0 H 8.75 8.375"
         id="path10562"
         inkscape:connector-curvature="0" />
      <path
         style="fill:#4f253a;fill-opacity:1"
         d="M 10,18.5 V 18 h 0.5 q 0.5,0 0.875,0.125 0.375,0.125 0.65625,-0.15625 L 12.3125,17.6875 12.25,17.625 l -0.0625,-0.0625 0.125,0.125 q 0.125,0.125 0.3125,0.1875 L 12.8125,17.9375 12.53125,17.84375 12.25,17.75 l 0.375,0.125 q 0.375,0.125 0.75,0.25 0.375,0.125 0.5,0.5 0.125,0.375 0.25,0.75 0.125,0.375 0.5,0.5 Q 15,20 15.5,20 H 16 v 0.5 q 0,0.5 -0.125,0.875 -0.125,0.375 -0.5,0.5 Q 15,22 14.5,22 H 14 V 21.5 Q 14,21 13.875,20.625 13.75,20.25 13.375,20.125 13,20 12.5,20 q -0.5,0 -1,0 -0.5,0 -1,0 H 10 v -0.5 q 0,-0.5 0,-1 M 9.875,20 H 10 10.375 10.75 10.5 Q 10.25,20 10,20 H 9.75 9.875"
         id="path10564"
         inkscape:connector-curvature="0" />
      <path
         style="fill:#790735;fill-opacity:1"
         d="M 13.875,18.625 13.75,18.25 13.84375,18.53125 13.9375,18.8125 13.875,18.625 q -0.0625,-0.1875 -0.1875,-0.3125 l -0.125,-0.125 0.0625,0.0625 0.0625,0.0625 L 14,18 14.3125,17.6875 14.25,17.625 l -0.0625,-0.0625 0.125,0.125 q 0.125,0.125 0.3125,0.1875 L 14.8125,17.9375 14.53125,17.84375 14.25,17.75 14.625,17.875 Q 15,18 15.5,18 H 16 v 0.5 q 0,0.5 0,1 V 20 H 15.5 Q 15,20 14.625,19.875 14.25,19.75 14.125,19.375 14,19 13.875,18.625"
         id="path10566"
         inkscape:connector-curvature="0" />
      <path
         style="fill:#f8aebe;fill-opacity:1"
         d="m 22.125,18.625 q 0.125,-0.375 0.5,-0.5 Q 23,18 23.5,18 H 24 v 0.5 q 0,0.5 0,1 V 20 h -0.5 q -0.5,0 -1,0 H 22 v -0.5 q 0,-0.5 0.125,-0.875"
         id="path10568"
         inkscape:connector-curvature="0" />
      <path
         style="fill:#4f253a;fill-opacity:1"
         d="M 24,18.5 V 18 h 0.5 q 0.5,0 0.875,-0.125 L 25.75,17.75 25.46875,17.84375 25.1875,17.9375 25.375,17.875 q 0.1875,-0.0625 0.3125,-0.1875 l 0.125,-0.125 L 25.75,17.625 25.6875,17.6875 26,18 l 0.3125,0.3125 0.0625,-0.0625 0.0625,-0.0625 -0.125,0.125 q -0.125,0.125 -0.1875,0.3125 L 26.0625,18.8125 26.15625,18.53125 26.25,18.25 26.125,18.625 Q 26,19 26,19.5 V 20 h -0.5 q -0.5,0 -1,0 H 24 v -0.5 q 0,-0.5 0,-1 m 2,1.625 V 20 19.625 19.25 19.5 q 0,0.25 0,0.5 v 0.25 -0.125"
         id="path10570"
         inkscape:connector-curvature="0" />
      <path
         style="fill:#4f253a;fill-opacity:1"
         d="M 6,20.5 V 20 h 0.5 q 0.5,0 0.875,0.125 0.375,0.125 0.5,0.5 0.125,0.375 0.25,0.75 0.125,0.375 0.5,0.5 0.375,0.125 0.75,0.25 0.375,0.125 0.5,0.5 0.125,0.375 0.25,0.75 0.125,0.375 0.5,0.5 Q 11,24 11.5,24 q 0.5,0 1,0 0.5,0 0.875,0.125 0.375,0.125 0.5,0.5 Q 14,25 14,25.5 v 0.5 0.5 q 0,0.5 0.125,0.875 0.125,0.375 0.5,0.5 Q 15,28 15.5,28 H 16 v 0.5 q 0,0.5 0,1 V 30 H 15.5 Q 15,30 14.625,29.875 14.25,29.75 14.125,29.375 14,29 13.875,28.625 13.75,28.25 13.375,28.125 13,28 12.625,27.875 12.25,27.75 12.125,27.375 12,27 11.875,26.625 11.75,26.25 11.375,26.125 11,26 10.625,25.875 10.25,25.75 10.125,25.375 10,25 9.875,24.625 9.75,24.25 9.375,24.125 9,24 8.625,23.875 8.25,23.75 8.125,23.375 8,23 7.875,22.625 7.75,22.25 7.375,22.125 7,22 6.625,21.875 6.25,21.75 6.125,21.375 6,21 6,20.5 M 15.625,30 H 16 16.125 16.25 16 q -0.25,0 -0.5,0 h -0.25 0.375 m 0.5,-2 H 16 15.625 15.25 15.5 q 0.25,0 0.5,0 h 0.25 -0.125 M 6,19.875 V 20 20.375 20.75 20.5 Q 6,20.25 6,20 v -0.25 0.125"
         id="path10572"
         inkscape:connector-curvature="0" />
      <path
         style="fill:#92143b;fill-opacity:1"
         d="M 7.875,20.625 7.75,20.25 7.84375,20.53125 7.9375,20.8125 7.875,20.625 Q 7.8125,20.4375 7.6875,20.3125 L 7.5625,20.1875 7.625,20.25 7.6875,20.3125 8,20 8.3125,19.6875 8.25,19.625 8.1875,19.5625 l 0.125,0.125 q 0.125,0.125 0.3125,0.1875 L 8.8125,19.9375 8.53125,19.84375 8.25,19.75 8.625,19.875 Q 9,20 9.5,20 H 10 v 0.5 q 0,0.5 0.125,0.875 L 10.25,21.75 10.15625,21.46875 10.0625,21.1875 10.125,21.375 q 0.0625,0.1875 0.1875,0.3125 l 0.125,0.125 L 10.375,21.75 10.3125,21.6875 10,22 9.6875,22.3125 9.75,22.375 9.8125,22.4375 9.6875,22.3125 Q 9.5625,22.1875 9.375,22.125 L 9.1875,22.0625 9.46875,22.15625 9.75,22.25 9.375,22.125 Q 9,22 8.625,21.875 8.25,21.75 8.125,21.375 8,21 7.875,20.625"
         id="path10574"
         inkscape:connector-curvature="0" />
      <path
         style="fill:#c8426b;fill-opacity:1"
         d="M 10,20.5 V 20 h 0.5 q 0.5,0 1,0 H 12 v 0.5 q 0,0.5 0.125,0.875 0.125,0.375 0.5,0.5 Q 13,22 13.5,22 H 14 v 0.5 q 0,0.5 0.125,0.875 0.125,0.375 0.5,0.5 0.375,0.125 0.75,0.25 0.375,0.125 0.5,0.5 Q 16,25 16,25.5 V 26 h -0.5 q -0.5,0 -1,0 H 14 V 25.5 Q 14,25 13.875,24.625 13.75,24.25 13.375,24.125 13,24 12.5,24 H 12 V 23.5 Q 12,23 11.875,22.625 11.75,22.25 11.375,22.125 11,22 10.625,21.875 10.25,21.75 10.125,21.375 10,21 10,20.5 M 11.875,24 H 12 12.375 12.75 12.5 q -0.25,0 -0.5,0 h -0.25 0.125 m 0.25,-4 H 12 11.625 11.25 11.5 q 0.25,0 0.5,0 h 0.25 -0.125"
         id="path10576"
         inkscape:connector-curvature="0" />
      <path
         style="fill:#d27ca0;fill-opacity:1"
         d="M 12,20.5 V 20 h 0.5 q 0.5,0 0.875,0.125 0.375,0.125 0.5,0.5 Q 14,21 14,21.5 V 22 H 13.5 Q 13,22 12.625,21.875 12.25,21.75 12.125,21.375 12,21 12,20.5 M 12.375,20 H 12 11.875 11.75 12 q 0.25,0 0.5,0 h 0.25 -0.375"
         id="path10578"
         inkscape:connector-curvature="0" />
      <path
         style="fill:#552b32;fill-opacity:1"
         d="M 16,20.5 V 20 h 0.5 q 0.5,0 1,0 H 18 v 0.5 q 0,0.5 0,1 V 22 H 17.5 Q 17,22 16.625,22.125 16.25,22.25 15.96875,21.96875 L 15.6875,21.6875 15.625,21.75 l -0.0625,0.0625 0.125,-0.125 q 0.125,-0.125 0.1875,-0.3125 L 15.9375,21.1875 15.84375,21.46875 15.75,21.75 15.875,21.375 Q 16,21 16,20.5"
         id="path10580"
         inkscape:connector-curvature="0" />
      <path
         style="fill:#4f253a;fill-opacity:1"
         d="M 18,20.5 V 20 h 0.5 q 0.5,0 1,0 H 20 v 0.5 q 0,0.5 0,1 V 22 h -0.5 q -0.5,0 -1,0 H 18 v -0.5 q 0,-0.5 0,-1"
         id="path10582"
         inkscape:connector-curvature="0" />
      <path
         style="fill:#c38ba1;fill-opacity:1"
         d="M 20,20.5 V 20 h 0.5 q 0.5,0 1,0 H 22 v 0.5 q 0,0.5 0,1 V 22 h -0.5 q -0.5,0 -1,0 H 20 v -0.5 q 0,-0.5 0,-1 m 2,1.625 V 22 21.625 21.25 21.5 q 0,0.25 0,0.5 v 0.25 -0.125"
         id="path10584"
         inkscape:connector-curvature="0" />
      <path
         style="fill:#c8426b;fill-opacity:1"
         d="M 22,20.5 V 20 h 0.5 q 0.5,0 1,0 H 24 v 0.5 q 0,0.5 -0.125,0.875 -0.125,0.375 -0.5,0.5 Q 23,22 22.5,22 H 22 v -0.5 q 0,-0.5 0,-1"
         id="path10586"
         inkscape:connector-curvature="0" />
      <path
         style="fill:#790735;fill-opacity:1"
         d="M 24,20.5 V 20 h 0.5 q 0.5,0 1,0 H 26 v 0.5 q 0,0.5 -0.125,0.875 -0.125,0.375 -0.5,0.5 Q 25,22 24.625,22.125 L 24.25,22.25 24.53125,22.15625 24.8125,22.0625 24.625,22.125 q -0.1875,0.0625 -0.3125,0.1875 l -0.125,0.125 L 24.25,22.375 24.3125,22.3125 24,22 23.6875,21.6875 23.625,21.75 l -0.0625,0.0625 0.125,-0.125 q 0.125,-0.125 0.1875,-0.3125 L 23.9375,21.1875 23.84375,21.46875 23.75,21.75 23.875,21.375 Q 24,21 24,20.5 m 2,-0.125 V 20 19.875 19.75 20 q 0,0.25 0,0.5 v 0.25 -0.375"
         id="path10588"
         inkscape:connector-curvature="0" />
      <path
         style="fill:#790735;fill-opacity:1"
         d="M 9.875,22.625 9.75,22.25 9.84375,22.53125 9.9375,22.8125 9.875,22.625 Q 9.8125,22.4375 9.6875,22.3125 L 9.5625,22.1875 9.625,22.25 9.6875,22.3125 10,22 10.3125,21.6875 10.25,21.625 l -0.0625,-0.0625 0.125,0.125 q 0.125,0.125 0.3125,0.1875 L 10.8125,21.9375 10.53125,21.84375 10.25,21.75 l 0.375,0.125 q 0.375,0.125 0.75,0.25 0.375,0.125 0.5,0.5 Q 12,23 12,23.5 V 24 H 11.5 Q 11,24 10.625,23.875 10.25,23.75 10.125,23.375 10,23 9.875,22.625 M 11.625,24 H 12 12.125 12.25 12 q -0.25,0 -0.5,0 h -0.25 0.375"
         id="path10590"
         inkscape:connector-curvature="0" />
      <path
         style="fill:#401a1a;fill-opacity:1"
         d="M 14,22.5 V 22 h 0.5 q 0.5,0 0.875,-0.125 L 15.75,21.75 15.46875,21.84375 15.1875,21.9375 15.375,21.875 q 0.1875,-0.0625 0.3125,-0.1875 l 0.125,-0.125 -0.0625,0.0625 -0.0625,0.0625 0.28125,0.28125 Q 16.25,22.25 16.625,22.125 17,22 17.5,22 H 18 v 0.5 q 0,0.5 0,1 v 0.5 0.5 q 0,0.5 -0.125,0.875 -0.125,0.375 -0.5,0.5 Q 17,26 16.5,26 H 16 V 25.5 Q 16,25 15.875,24.625 15.75,24.25 15.375,24.125 15,24 14.625,23.875 14.25,23.75 14.125,23.375 14,23 14,22.5 M 15.875,26 H 16 16.375 16.75 16.5 q -0.25,0 -0.5,0 h -0.25 0.125"
         id="path10592"
         inkscape:connector-curvature="0" />
      <path
         style="fill:#c8426b;fill-opacity:1"
         d="M 18,22.5 V 22 h 0.5 q 0.5,0 1,0 H 20 v 0.5 q 0,0.5 0,1 V 24 h -0.5 q -0.5,0 -1,0 H 18 v -0.5 q 0,-0.5 0,-1 m 0,-0.625 V 22 22.375 22.75 22.5 q 0,-0.25 0,-0.5 v -0.25 0.125"
         id="path10594"
         inkscape:connector-curvature="0" />
      <path
         style="fill:#b61239;fill-opacity:1"
         d="M 20,22.5 V 22 h 0.5 q 0.5,0 1,0 H 22 v 0.5 q 0,0.5 -0.125,0.875 -0.125,0.375 -0.5,0.5 Q 21,24 20.5,24 H 20 v -0.5 q 0,-0.5 0,-1 M 19.875,24 H 20 20.375 20.75 20.5 q -0.25,0 -0.5,0 h -0.25 0.125 M 22,22.375 V 22 21.875 21.75 22 q 0,0.25 0,0.5 v 0.25 -0.375"
         id="path10596"
         inkscape:connector-curvature="0" />
      <path
         style="fill:#92143b;fill-opacity:1"
         d="M 22,22.5 V 22 h 0.5 q 0.5,0 0.875,-0.125 L 23.75,21.75 23.46875,21.84375 23.1875,21.9375 23.375,21.875 q 0.1875,-0.0625 0.3125,-0.1875 l 0.125,-0.125 L 23.75,21.625 23.6875,21.6875 24,22 l 0.3125,0.3125 0.0625,-0.0625 0.0625,-0.0625 -0.125,0.125 q -0.125,0.125 -0.1875,0.3125 L 24.0625,22.8125 24.15625,22.53125 24.25,22.25 24.125,22.625 Q 24,23 23.875,23.375 23.75,23.75 23.375,23.875 23,24 22.625,24.125 L 22.25,24.25 22.53125,24.15625 22.8125,24.0625 22.625,24.125 q -0.1875,0.0625 -0.3125,0.1875 l -0.125,0.125 L 22.25,24.375 22.3125,24.3125 22,24 21.6875,23.6875 21.625,23.75 l -0.0625,0.0625 0.125,-0.125 q 0.125,-0.125 0.1875,-0.3125 L 21.9375,23.1875 21.84375,23.46875 21.75,23.75 21.875,23.375 Q 22,23 22,22.5"
         id="path10598"
         inkscape:connector-curvature="0" />
      <path
         style="fill:#92143b;fill-opacity:1"
         d="M 18,24.5 V 24 h 0.5 q 0.5,0 1,0 H 20 v 0.5 q 0,0.5 0,1 V 26 H 19.5 Q 19,26 18.625,26.125 L 18.25,26.25 18.53125,26.15625 18.8125,26.0625 18.625,26.125 q -0.1875,0.0625 -0.3125,0.1875 l -0.125,0.125 L 18.25,26.375 18.3125,26.3125 18,26 17.6875,25.6875 17.625,25.75 l -0.0625,0.0625 0.125,-0.125 q 0.125,-0.125 0.1875,-0.3125 L 17.9375,25.1875 17.84375,25.46875 17.75,25.75 17.875,25.375 Q 18,25 18,24.5"
         id="path10600"
         inkscape:connector-curvature="0" />
      <path
         style="fill:#790735;fill-opacity:1"
         d="M 20,24.5 V 24 h 0.5 q 0.5,0 0.875,-0.125 L 21.75,23.75 21.46875,23.84375 21.1875,23.9375 21.375,23.875 q 0.1875,-0.0625 0.3125,-0.1875 l 0.125,-0.125 L 21.75,23.625 21.6875,23.6875 22,24 l 0.3125,0.3125 0.0625,-0.0625 0.0625,-0.0625 -0.125,0.125 q -0.125,0.125 -0.1875,0.3125 L 22.0625,24.8125 22.15625,24.53125 22.25,24.25 22.125,24.625 Q 22,25 21.875,25.375 21.75,25.75 21.375,25.875 21,26 20.5,26 H 20 v -0.5 q 0,-0.5 0,-1"
         id="path10602"
         inkscape:connector-curvature="0" />
      <path
         style="fill:#92143b;fill-opacity:1"
         d="M 14,26.5 V 26 h 0.5 q 0.5,0 1,0 H 16 v 0.5 q 0,0.5 0,1 V 28 H 15.5 Q 15,28 14.625,27.875 14.25,27.75 14.125,27.375 14,27 14,26.5"
         id="path10604"
         inkscape:connector-curvature="0" />
      <path
         style="fill:#790735;fill-opacity:1"
         d="M 16,26.5 V 26 h 0.5 q 0.5,0 0.875,-0.125 L 17.75,25.75 17.46875,25.84375 17.1875,25.9375 17.375,25.875 q 0.1875,-0.0625 0.3125,-0.1875 l 0.125,-0.125 L 17.75,25.625 17.6875,25.6875 18,26 l 0.3125,0.3125 0.0625,-0.0625 0.0625,-0.0625 -0.125,0.125 q -0.125,0.125 -0.1875,0.3125 L 18.0625,26.8125 18.15625,26.53125 18.25,26.25 18.125,26.625 Q 18,27 18,27.5 V 28 h -0.5 q -0.5,0 -1,0 H 16 v -0.5 q 0,-0.5 0,-1"
         id="path10606"
         inkscape:connector-curvature="0" />
      <path
         style="fill:#4f253a;fill-opacity:1"
         d="m 18.125,26.625 q 0.125,-0.375 0.5,-0.5 Q 19,26 19.5,26 H 20 v 0.5 q 0,0.5 -0.125,0.875 -0.125,0.375 -0.5,0.5 Q 19,28 18.5,28 H 18 v -0.5 q 0,-0.5 0.125,-0.875 m 2,-0.625 H 20 19.625 19.25 19.5 q 0.25,0 0.5,0 h 0.25 -0.125"
         id="path10608"
         inkscape:connector-curvature="0" />
      <path
         style="fill:#401a1a;fill-opacity:1"
         d="M 16,28.5 V 28 h 0.5 q 0.5,0 1,0 H 18 v 0.5 q 0,0.5 -0.125,0.875 -0.125,0.375 -0.5,0.5 Q 17,30 16.5,30 H 16 v -0.5 q 0,-0.5 0,-1 M 15.875,30 H 16 16.375 16.75 16.5 q -0.25,0 -0.5,0 h -0.25 0.125 m 0.5,-2 H 16 15.875 15.75 16 q 0.25,0 0.5,0 h 0.25 -0.375"
         id="path10610"
         inkscape:connector-curvature="0" />
    </g>
  </g>
</svg>
